<?xml version="1.0" encoding="iso-8859-1"?>
<!-- Generator: Adobe Illustrator 18.0.0, SVG Export Plug-In . SVG Version: 6.00 Build 0)  -->
<!DOCTYPE svg PUBLIC "-//W3C//DTD SVG 1.1//EN" "http://www.w3.org/Graphics/SVG/1.1/DTD/svg11.dtd">
<svg version="1.1" id="Capa_1" xmlns="http://www.w3.org/2000/svg" xmlns:xlink="http://www.w3.org/1999/xlink" x="0px" y="0px"
	 viewBox="0 0 473.394 473.394" style="enable-background:new 0 0 473.394 473.394;" xml:space="preserve">
<path d="M468.394,231.697h-17.183c-15.46,0-37.814-26.896-53.153-63.953c-14.685-35.478-17.69-67.499-7.309-77.871
	c0.251-0.251,13.319-13.474,13.319-13.474c1.953-1.953,1.953-5.119,0-7.071c-1.952-1.951-5.117-1.952-7.071,0l-14.54,14.54
	c-4.203,3.305-11.135,5.048-20.219,5.048c-20.832,0-51.207-9.206-77.383-23.454c-26.62-14.491-43.157-31.073-43.157-43.277V5
	c0-2.761-2.239-5-5-5c-2.761,0-5,2.239-5,5v17.184c0,27.227-77.301,64.536-121.175,64.536c-10.921,0-18.963-2.271-23.257-6.566
	c-0.071-0.071-10.868-10.826-10.868-10.826c-1.953-1.952-5.118-1.952-7.071,0c-1.953,1.953-1.953,5.119,0,7.071l11.238,11.238
	c10.592,11.478,7.255,46.284-8.081,83.302c-14.821,35.773-35.505,60.758-50.3,60.758H5c-2.761,0-5,2.239-5,5s2.239,5,5,5h17.183
	c15.523,0,37.992,27.019,53.426,64.245c14.077,33.954,17.422,64.715,8.524,76.247l-14.807,14.807c-1.953,1.953-1.953,5.119,0,7.071
	c0.977,0.976,2.256,1.464,3.536,1.464c1.279,0,2.559-0.488,3.536-1.464c0,0,13.391-13.208,13.658-13.476
	c3.994-3.999,11.389-6.113,21.383-6.113c20.783,0,51.085,9.206,77.199,23.453c26.56,14.49,43.059,31.074,43.059,43.28
	c0,0.003,0.001,0.006,0.001,0.01v17.173c0,2.761,2.239,5,5,5c2.761,0,5-2.239,5-5v-17.206c0.042-27.227,77.341-64.515,121.22-64.515
	c10.776,0,18.743,2.213,23.081,6.395l10.998,10.999c0.977,0.976,2.256,1.464,3.536,1.464c1.28,0,2.559-0.488,3.536-1.464
	c1.953-1.953,1.953-5.119,0-7.071c0,0-10.842-10.885-11.03-11.05c-10.801-11.303-7.504-46.311,7.915-83.538
	c14.806-35.746,35.473-60.711,50.258-60.711h17.183c2.761,0,5-2.239,5-5S471.155,231.697,468.394,231.697z M388.818,171.568
	c9.149,22.103,23.425,46.739,39.407,60.128h-41.267c-10.085,0-25.497-18.862-35.85-43.874c-9.901-23.92-12.19-46.173-5.445-52.912
	c0.184-0.184,29.095-29.202,29.095-29.202C373.237,124.911,379.911,150.05,388.818,171.568z M289.743,213.945
	c2.579,6.23,6.057,12.653,10.103,17.751h-51.077l35.874-35.874C285.641,203.353,288.394,210.687,289.743,213.945z M285.335,278.263
	l-36.567-36.566h51.322c-4.656,6.077-7.922,13.275-9.283,16.561C288.186,264.586,286.075,271.703,285.335,278.263z M183.751,259.558
	c-2.6-6.271-6.106-12.736-10.182-17.861h51.057l-35.795,35.795C187.815,270.031,185.09,262.787,183.751,259.558z M188.071,195.143
	l36.554,36.554h-51.319c4.661-6.081,7.932-13.286,9.294-16.573C185.218,208.803,187.328,201.697,188.071,195.143z M241.697,173.488
	c9.606,7.716,24.311,13.742,35.851,15.287l-35.851,35.85V173.488z M231.697,224.626l-36.592-36.591
	c11.194-1.365,26.61-7.002,36.592-14.702V224.626z M231.697,248.768v51.121c-9.609-7.728-24.324-13.768-35.834-15.288
	L231.697,248.768z M241.697,248.769l36.591,36.59c-11.198,1.369-26.611,7.004-36.591,14.702V248.769z M288.241,178.083
	c-0.614,0.418-2.103,1.085-5.357,1.085c-15.739,0-41.165-14.384-41.186-21.381v-51.474c7.919,8.166,18.62,14.614,24.668,17.906
	c19.79,10.772,42.118,17.464,58.27,17.464c0.002,0,0.004,0,0.007,0L288.241,178.083z M231.697,157.767
	c0,0.003-0.001,0.007-0.001,0.01c0,6.908-25.17,20.582-41.419,20.582c-4.484,0-5.973-1.141-6.322-1.49
	c-0.027-0.027-0.059-0.044-0.086-0.071l-36.676-36.676c0.375,0.007,0.74,0.022,1.122,0.022c16.478,0,38.96-6.415,58.676-16.741
	c7.271-3.808,17.297-9.835,24.707-17.276V157.767z M176.937,184.01c2.259,2.438,2.277,13.161-3.576,27.286
	c-5.766,13.917-12.709,20.401-15.585,20.401h-51.712c9.415-9.324,17.675-23.844,23.46-37.805
	c6.006-14.495,10.857-32.248,10.599-46.697L176.937,184.01z M157.775,241.697c3.248,0,10.872,7.538,16.738,21.69
	c5.474,13.205,5.4,22.344,3.612,24.81l-36.355,36.354c-0.001-13.064-4.37-28.883-10.059-42.605
	c-5.964-14.386-15.016-30.267-25.339-40.249H157.775z M184.982,295.549c0.31-0.31,1.631-1.322,5.631-1.322
	c7.156,0,17.711,3.235,26.889,8.243c10.414,5.681,14.194,10.975,14.194,13.148c0,0.003,0.001,0.006,0.001,0.01v51.436
	c-7.899-8.156-18.563-14.595-24.593-17.885c-19.748-10.773-42.029-17.466-58.148-17.466c-0.07,0-0.137,0.004-0.207,0.004
	C148.749,331.715,184.869,295.662,184.982,295.549z M241.697,315.608c0.01-2.117,3.781-7.225,14.146-12.652
	c9.192-4.813,19.904-7.922,27.291-7.922c4.188,0,5.763,0.994,6.239,1.41l36.825,36.825c-0.363-0.006-0.717-0.021-1.087-0.021
	c-16.483,0-38.974,6.415-58.695,16.741c-7.274,3.809-17.306,9.837-24.718,17.279V315.608z M296.391,289.3
	c-2.18-2.606-2.127-13.256,3.654-27.217c5.76-13.907,12.696-20.387,15.571-20.387h51.718c-9.406,9.318-17.658,23.826-23.436,37.774
	c-6.012,14.516-10.866,32.297-10.595,46.76C333.303,326.231,296.539,289.436,296.391,289.3z M315.616,231.697
	c-3.23,0-10.807-7.498-16.634-21.576c-5.708-13.792-5.389-23.193-3.375-25.205c0.097-0.097,0.168-0.209,0.255-0.313l35.954-35.954
	c-0.07,13.154,4.317,29.141,10.052,42.997c5.923,14.311,14.916,30.106,25.18,40.05H315.616z M280.074,74.244
	c27.534,14.988,59.785,24.672,82.164,24.672c1.874,0,3.652-0.086,5.385-0.214c0,0-27.813,27.813-29.72,29.72
	c-1.908,1.907-7.199,3.261-13.268,3.261c-31.78,0-82.937-27.909-82.937-45.247V45.068C252.853,58.351,270.574,69.073,280.074,74.244
	z M110.522,96.72c36.309,0,97.313-24.005,121.175-51.975v41.691c0,7.739-11.519,18.772-29.347,28.109
	c-18.092,9.476-39.303,15.599-54.036,15.599c-7.244,0-12.511-1.439-15.231-4.161c-0.05-0.05-0.109-0.084-0.162-0.132L103.479,96.41
	C105.713,96.612,108.056,96.72,110.522,96.72z M81.721,174.767c9.263-22.356,16.668-50.201,14.791-71.181l29.746,29.746
	c6.898,7.534,4.377,31.748-5.974,56.733c-9.995,24.124-24.23,41.632-33.85,41.632H44.867
	C59.608,219.088,72.745,196.432,81.721,174.767z M84.846,302.112c-9.21-22.217-23.577-46.979-39.642-60.415h41.231
	c10.128,0,25.623,18.95,36.041,44.079c9.491,22.892,11.989,44.24,6.234,51.837L98.94,367.381
	C100.32,348.289,93.68,323.419,84.846,302.112z M193.427,399.152c-27.475-14.989-59.657-24.674-81.989-24.674
	c-1.984,0-3.865,0.094-5.691,0.238c0,0,29.073-28.945,29.29-29.163c2.511-2.514,7.324-3.842,13.919-3.842
	c31.704,0,82.74,27.909,82.74,45.247c0,0.003,0.001,0.006,0.001,0.01v41.335C220.566,415.032,202.9,404.32,193.427,399.152z
	 M362.918,376.673c-36.323,0-97.351,24.007-121.22,51.979v-41.715c0.021-7.737,11.539-18.759,29.356-28.088
	c18.1-9.477,39.318-15.6,54.057-15.6c7.141,0,12.357,1.4,15.112,4.045l29.685,29.685
	C367.69,376.779,365.364,376.673,362.918,376.673z M391.714,298.581c-9.274,22.391-16.686,50.282-14.782,71.279
	c0,0-29.539-29.576-29.712-29.729c-6.972-7.472-4.462-31.771,5.918-56.832c9.984-24.105,24.208-41.601,33.82-41.601h41.573
	C413.803,254.298,400.68,276.934,391.714,298.581z"/>
<g>
</g>
<g>
</g>
<g>
</g>
<g>
</g>
<g>
</g>
<g>
</g>
<g>
</g>
<g>
</g>
<g>
</g>
<g>
</g>
<g>
</g>
<g>
</g>
<g>
</g>
<g>
</g>
<g>
</g>
</svg>
